<svg width="35" height="35" viewBox="0 0 35 35" fill="none" xmlns="http://www.w3.org/2000/svg">
<path d="M4.375 32.0833H30.625" stroke="white" stroke-width="1.5" stroke-linecap="round" stroke-linejoin="round"/>
<path d="M8.16663 12.2208H5.83333C5.03125 12.2208 4.375 12.8771 4.375 13.6792V26.25C4.375 27.0521 5.03125 27.7083 5.83333 27.7083H8.16663C8.96871 27.7083 9.62496 27.0521 9.62496 26.25V13.6792C9.62496 12.8771 8.96871 12.2208 8.16663 12.2208Z" fill="white" fill-opacity="0.4" stroke="white" stroke-width="1.5" stroke-linecap="round" stroke-linejoin="round"/>
<path d="M18.6666 7.56876H16.3333C15.5312 7.56876 14.875 8.22501 14.875 9.02709V26.25C14.875 27.0521 15.5312 27.7083 16.3333 27.7083H18.6666C19.4687 27.7083 20.125 27.0521 20.125 26.25V9.02709C20.125 8.22501 19.4687 7.56876 18.6666 7.56876Z" fill="white" fill-opacity="0.4" stroke="white" stroke-width="1.5" stroke-linecap="round" stroke-linejoin="round"/>
<path d="M29.1666 2.91666H26.8333C26.0312 2.91666 25.375 3.57291 25.375 4.37499V26.25C25.375 27.0521 26.0312 27.7083 26.8333 27.7083H29.1666C29.9687 27.7083 30.625 27.0521 30.625 26.25V4.37499C30.625 3.57291 29.9687 2.91666 29.1666 2.91666Z" fill="white" fill-opacity="0.4" stroke="white" stroke-width="1.5" stroke-linecap="round" stroke-linejoin="round"/>
</svg>
