<svg width="35" height="35" viewBox="0 0 35 35" fill="none" xmlns="http://www.w3.org/2000/svg">
<path d="M11.6666 16.625C11.6666 17.7479 12.5416 18.6667 13.6062 18.6667H15.7937C16.727 18.6667 17.4854 17.8646 17.4854 16.8875C17.4854 15.8229 17.0187 15.4438 16.3333 15.1958L12.8333 13.9708C12.1333 13.7229 11.6666 13.3438 11.6666 12.2792C11.6666 11.3021 12.425 10.5 13.3583 10.5H15.5458C16.625 10.5146 17.5 11.4188 17.5 12.5417" stroke="white" stroke-width="1.5" stroke-linecap="round" stroke-linejoin="round"/>
<path d="M14.5834 18.7396V19.8187" stroke="white" stroke-width="1.5" stroke-linecap="round" stroke-linejoin="round"/>
<path d="M14.5834 9.3479V10.4854" stroke="white" stroke-width="1.5" stroke-linecap="round" stroke-linejoin="round"/>
<path d="M14.5687 26.2209C21.004 26.2209 26.2208 21.004 26.2208 14.5688C26.2208 8.1335 21.004 2.91669 14.5687 2.91669C8.13344 2.91669 2.91663 8.1335 2.91663 14.5688C2.91663 21.004 8.13344 26.2209 14.5687 26.2209Z" fill="white" fill-opacity="0.4" stroke="white" stroke-width="1.5" stroke-linecap="round" stroke-linejoin="round"/>
<path d="M18.9292 28.9916C20.2417 30.8437 22.3855 32.0541 24.8355 32.0541C28.8167 32.0541 32.0542 28.8166 32.0542 24.8354C32.0542 22.4146 30.8584 20.2708 29.0354 18.9583" stroke="white" stroke-width="1.5" stroke-linecap="round" stroke-linejoin="round"/>
</svg>
