<svg width="35" height="35" viewBox="0 0 35 35" fill="none" xmlns="http://www.w3.org/2000/svg">
<path opacity="0.4" d="M32.0833 12.425V5.80417C32.0833 3.74792 31.15 2.91667 28.8313 2.91667H22.9396C20.6208 2.91667 19.6875 3.74792 19.6875 5.80417V12.4104C19.6875 14.4813 20.6208 15.2979 22.9396 15.2979H28.8313C31.15 15.3125 32.0833 14.4813 32.0833 12.425Z" fill="white"/>
<path d="M32.0833 28.8313V22.9396C32.0833 20.6208 31.15 19.6875 28.8313 19.6875H22.9396C20.6208 19.6875 19.6875 20.6208 19.6875 22.9396V28.8313C19.6875 31.15 20.6208 32.0833 22.9396 32.0833H28.8313C31.15 32.0833 32.0833 31.15 32.0833 28.8313Z" fill="white"/>
<path d="M15.3125 12.425V5.80417C15.3125 3.74792 14.3791 2.91667 12.0604 2.91667H6.16871C3.84996 2.91667 2.91663 3.74792 2.91663 5.80417V12.4104C2.91663 14.4813 3.84996 15.2979 6.16871 15.2979H12.0604C14.3791 15.3125 15.3125 14.4813 15.3125 12.425Z" fill="white"/>
<path opacity="0.4" d="M15.3125 28.8313V22.9396C15.3125 20.6208 14.3791 19.6875 12.0604 19.6875H6.16871C3.84996 19.6875 2.91663 20.6208 2.91663 22.9396V28.8313C2.91663 31.15 3.84996 32.0833 6.16871 32.0833H12.0604C14.3791 32.0833 15.3125 31.15 15.3125 28.8313Z" fill="white"/>
</svg>
