<svg width="35" height="35" viewBox="0 0 35 35" fill="none" xmlns="http://www.w3.org/2000/svg">
<path d="M12.3958 27.7084H11.6666C5.83329 27.7084 2.91663 26.25 2.91663 18.9584V11.6667C2.91663 5.83335 5.83329 2.91669 11.6666 2.91669H23.3333C29.1666 2.91669 32.0833 5.83335 32.0833 11.6667V18.9584C32.0833 24.7917 29.1666 27.7084 23.3333 27.7084H22.6041C22.152 27.7084 21.7145 27.9271 21.4375 28.2917L19.25 31.2084C18.2875 32.4917 16.7125 32.4917 15.75 31.2084L13.5625 28.2917C13.3291 27.9709 12.7895 27.7084 12.3958 27.7084Z" fill="white" fill-opacity="0.4" stroke="white" stroke-width="1.5" stroke-miterlimit="10" stroke-linecap="round" stroke-linejoin="round"/>
<path d="M23.3282 16.0417H23.3413" stroke="white" stroke-width="2" stroke-linecap="round" stroke-linejoin="round"/>
<path d="M17.4934 16.0417H17.5065" stroke="white" stroke-width="2" stroke-linecap="round" stroke-linejoin="round"/>
<path d="M11.6587 16.0417H11.6718" stroke="white" stroke-width="2" stroke-linecap="round" stroke-linejoin="round"/>
</svg>
