<svg width="17" height="17" viewBox="0 0 17 17" fill="none" xmlns="http://www.w3.org/2000/svg">
<path d="M6.18748 13.0625C6.18748 13.64 6.27686 14.2038 6.44186 14.7263C3.80186 13.8119 1.80811 11.385 1.60186 8.54563C1.39561 5.5275 3.13498 2.70875 5.94686 1.52625C6.67561 1.22375 7.04686 1.44375 7.20498 1.60187C7.35623 1.75312 7.56936 2.1175 7.26686 2.81188C6.95748 3.52688 6.80623 4.28313 6.80623 5.06688C6.81311 6.46938 7.36311 7.76875 8.25686 8.76563C6.99873 9.76938 6.18748 11.3231 6.18748 13.0625Z" fill="white"/>
<path opacity="0.4" d="M14.5819 12.1825C13.2206 14.0319 11.0619 15.1181 8.75875 15.1181C8.64875 15.1181 8.53875 15.1112 8.42875 15.1044C7.74125 15.0769 7.07437 14.9462 6.44187 14.7262C6.27687 14.2037 6.1875 13.64 6.1875 13.0625C6.1875 11.3231 6.99875 9.76937 8.25688 8.76562C9.2675 9.9 10.7181 10.6356 12.32 10.7044C12.7531 10.725 13.1862 10.6906 13.6125 10.615C14.3825 10.4775 14.6919 10.7662 14.8019 10.9519C14.9187 11.1375 15.0425 11.5431 14.5819 12.1825Z" fill="white"/>
</svg>
