<svg width="35" height="35" viewBox="0 0 35 35" fill="none" xmlns="http://www.w3.org/2000/svg">
<path d="M17.5 9.39166V14.2479" stroke="white" stroke-width="1.5" stroke-miterlimit="10" stroke-linecap="round"/>
<path d="M17.5291 2.91669C12.1625 2.91669 7.81664 7.26252 7.81664 12.6292V15.6917C7.81664 16.6834 7.40831 18.1709 6.89789 19.0167L5.04581 22.1084C3.90831 24.0188 4.69581 26.1479 6.79581 26.8479C13.7666 29.1667 21.3062 29.1667 28.2771 26.8479C30.2458 26.1917 31.0916 23.8875 30.0271 22.1084L28.175 19.0167C27.6646 18.1709 27.2562 16.6688 27.2562 15.6917V12.6292C27.2416 7.29169 22.8666 2.91669 17.5291 2.91669Z" fill="white" fill-opacity="0.4" stroke="white" stroke-width="1.5" stroke-miterlimit="10" stroke-linecap="round"/>
<path d="M22.3563 27.4459C22.3563 30.1146 20.1688 32.3021 17.5 32.3021C16.173 32.3021 14.948 31.7479 14.073 30.8729C13.198 29.9979 12.6438 28.7729 12.6438 27.4459" stroke="white" stroke-width="1.5" stroke-miterlimit="10"/>
</svg>
