<svg width="35" height="35" viewBox="0 0 35 35" fill="none" xmlns="http://www.w3.org/2000/svg">
<path d="M3.01879 6.70833C4.18546 1.66249 11.7834 1.66249 12.9355 6.70833C13.6209 9.66874 11.7396 12.1771 10.1063 13.7375C8.91046 14.875 7.02921 14.8604 5.83337 13.7375C4.21462 12.1771 2.33337 9.66874 3.01879 6.70833Z" fill="white" fill-opacity="0.4" stroke="white" stroke-width="1.5"/>
<path d="M21.9771 24.2083C23.1437 19.1625 30.7854 19.1625 31.9521 24.2083C32.6375 27.1687 30.7562 29.6771 29.1083 31.2375C27.9125 32.375 26.0167 32.3604 24.8208 31.2375C23.1729 29.6771 21.2917 27.1687 21.9771 24.2083Z" fill="white" fill-opacity="0.4" stroke="white" stroke-width="1.5"/>
<path d="M17.5 7.29169H21.4083C24.1062 7.29169 25.3604 10.6313 23.3333 12.4104L11.6812 22.6042C9.65414 24.3688 10.9083 27.7084 13.5916 27.7084H17.5" stroke="white" stroke-width="1.5" stroke-linecap="round" stroke-linejoin="round"/>
<path d="M8.00067 8.02085H8.01752" stroke="white" stroke-width="2" stroke-linecap="round" stroke-linejoin="round"/>
<path d="M26.959 25.5209H26.9759" stroke="white" stroke-width="2" stroke-linecap="round" stroke-linejoin="round"/>
</svg>
