<svg width="28" height="28" viewBox="0 0 28 28" fill="none" xmlns="http://www.w3.org/2000/svg">
<path opacity="0.4" d="M14 22.1667C18.5103 22.1667 22.1666 18.5103 22.1666 14C22.1666 9.48967 18.5103 5.83333 14 5.83333C9.48965 5.83333 5.83331 9.48967 5.83331 14C5.83331 18.5103 9.48965 22.1667 14 22.1667Z" fill="#C3BD1D"/>
<path d="M14 26.7867C13.3584 26.7867 12.8334 26.3083 12.8334 25.6667V25.5733C12.8334 24.9317 13.3584 24.4067 14 24.4067C14.6417 24.4067 15.1667 24.9317 15.1667 25.5733C15.1667 26.215 14.6417 26.7867 14 26.7867ZM22.33 23.4967C22.0267 23.4967 21.735 23.38 21.5017 23.1583L21.35 23.0067C20.895 22.5517 20.895 21.8167 21.35 21.3617C21.805 20.9067 22.54 20.9067 22.995 21.3617L23.1467 21.5133C23.6017 21.9683 23.6017 22.7033 23.1467 23.1583C22.925 23.38 22.6334 23.4967 22.33 23.4967ZM5.67002 23.4967C5.36669 23.4967 5.07502 23.38 4.84169 23.1583C4.38669 22.7033 4.38669 21.9683 4.84169 21.5133L4.99335 21.3617C5.44835 20.9067 6.18335 20.9067 6.63835 21.3617C7.09335 21.8167 7.09335 22.5517 6.63835 23.0067L6.48669 23.1583C6.26502 23.38 5.96169 23.4967 5.67002 23.4967ZM25.6667 15.1667H25.5734C24.9317 15.1667 24.4067 14.6417 24.4067 14C24.4067 13.3583 24.9317 12.8333 25.5734 12.8333C26.215 12.8333 26.7867 13.3583 26.7867 14C26.7867 14.6417 26.3084 15.1667 25.6667 15.1667ZM2.42669 15.1667H2.33335C1.69169 15.1667 1.16669 14.6417 1.16669 14C1.16669 13.3583 1.69169 12.8333 2.33335 12.8333C2.97502 12.8333 3.54669 13.3583 3.54669 14C3.54669 14.6417 3.06835 15.1667 2.42669 15.1667ZM22.1784 6.98833C21.875 6.98833 21.5834 6.87167 21.35 6.65C20.895 6.195 20.895 5.46 21.35 5.005L21.5017 4.85333C21.9567 4.39833 22.6917 4.39833 23.1467 4.85333C23.6017 5.30833 23.6017 6.04333 23.1467 6.49833L22.995 6.65C22.7734 6.87167 22.4817 6.98833 22.1784 6.98833ZM5.82169 6.98833C5.51835 6.98833 5.22669 6.87167 4.99335 6.65L4.84169 6.48667C4.38669 6.03167 4.38669 5.29667 4.84169 4.84167C5.29669 4.38667 6.03169 4.38667 6.48669 4.84167L6.63835 4.99333C7.09335 5.44833 7.09335 6.18333 6.63835 6.63833C6.41669 6.87167 6.11335 6.98833 5.82169 6.98833ZM14 3.54667C13.3584 3.54667 12.8334 3.06833 12.8334 2.42667V2.33333C12.8334 1.69167 13.3584 1.16667 14 1.16667C14.6417 1.16667 15.1667 1.69167 15.1667 2.33333C15.1667 2.975 14.6417 3.54667 14 3.54667Z" fill="#C3BD1D"/>
</svg>
