<svg width="35" height="35" viewBox="0 0 35 35" fill="none" xmlns="http://www.w3.org/2000/svg">
<path d="M17.5 17.5C21.5271 17.5 24.7917 14.2354 24.7917 10.2083C24.7917 6.18125 21.5271 2.91666 17.5 2.91666C13.473 2.91666 10.2084 6.18125 10.2084 10.2083C10.2084 14.2354 13.473 17.5 17.5 17.5Z" fill="white" fill-opacity="0.4" stroke="white" stroke-width="1.5" stroke-linecap="round" stroke-linejoin="round"/>
<path d="M4.9729 32.0833C4.9729 26.4396 10.5875 21.875 17.5 21.875" stroke="white" stroke-width="1.5" stroke-linecap="round" stroke-linejoin="round"/>
<path d="M26.5417 31.2084C29.119 31.2084 31.2084 29.119 31.2084 26.5417C31.2084 23.9644 29.119 21.875 26.5417 21.875C23.9644 21.875 21.875 23.9644 21.875 26.5417C21.875 29.119 23.9644 31.2084 26.5417 31.2084Z" fill="white" fill-opacity="0.4" stroke="white" stroke-width="1.5" stroke-linecap="round" stroke-linejoin="round"/>
<path d="M32.0833 32.0833L30.625 30.625" stroke="white" stroke-width="1.5" stroke-linecap="round" stroke-linejoin="round"/>
</svg>
