<svg width="35" height="35" viewBox="0 0 35 35" fill="none" xmlns="http://www.w3.org/2000/svg">
<path d="M21.875 2.91667V17.5C21.875 19.1042 20.5625 20.4167 18.9583 20.4167H2.91663V8.75001C2.91663 5.52709 5.52704 2.91667 8.74996 2.91667H21.875Z" fill="white" fill-opacity="0.4" stroke="white" stroke-width="1.5" stroke-linecap="round" stroke-linejoin="round"/>
<path d="M32.0833 20.4167V24.7917C32.0833 27.2125 30.1291 29.1667 27.7083 29.1667H26.25C26.25 27.5625 24.9375 26.25 23.3333 26.25C21.7291 26.25 20.4166 27.5625 20.4166 29.1667H14.5833C14.5833 27.5625 13.2708 26.25 11.6666 26.25C10.0625 26.25 8.74996 27.5625 8.74996 29.1667H7.29163C4.87079 29.1667 2.91663 27.2125 2.91663 24.7917V20.4167H18.9583C20.5625 20.4167 21.875 19.1042 21.875 17.5V7.29167H24.5583C25.6083 7.29167 26.5708 7.86044 27.0958 8.7646L29.5896 13.125H27.7083C26.9062 13.125 26.25 13.7813 26.25 14.5833V18.9583C26.25 19.7604 26.9062 20.4167 27.7083 20.4167H32.0833Z" fill="white" fill-opacity="0.4" stroke="white" stroke-width="1.5" stroke-linecap="round" stroke-linejoin="round"/>
<path d="M11.6667 32.0833C13.2775 32.0833 14.5833 30.7775 14.5833 29.1667C14.5833 27.5558 13.2775 26.25 11.6667 26.25C10.0558 26.25 8.75 27.5558 8.75 29.1667C8.75 30.7775 10.0558 32.0833 11.6667 32.0833Z" fill="white" fill-opacity="0.4" stroke="white" stroke-width="1.5" stroke-linecap="round" stroke-linejoin="round"/>
<path d="M23.3333 32.0833C24.9441 32.0833 26.25 30.7775 26.25 29.1667C26.25 27.5558 24.9441 26.25 23.3333 26.25C21.7225 26.25 20.4166 27.5558 20.4166 29.1667C20.4166 30.7775 21.7225 32.0833 23.3333 32.0833Z" fill="white" fill-opacity="0.4" stroke="white" stroke-width="1.5" stroke-linecap="round" stroke-linejoin="round"/>
<path d="M32.0833 17.5V20.4167H27.7083C26.9062 20.4167 26.25 19.7604 26.25 18.9583V14.5833C26.25 13.7812 26.9062 13.125 27.7083 13.125H29.5896L32.0833 17.5Z" fill="white" fill-opacity="0.4" stroke="white" stroke-width="1.5" stroke-linecap="round" stroke-linejoin="round"/>
</svg>
