<svg width="126" height="57" viewBox="0 0 126 57" fill="none" xmlns="http://www.w3.org/2000/svg">
<g clip-path="url(#clip0_66_4388)">
<path d="M15.962 22.0739C15.6259 23.8619 15.715 25.7029 16.2142 27.4524C16.7043 29.0814 17.6007 30.5513 18.8194 31.7031C20.1032 32.8937 21.616 33.7899 23.2546 34.3297C25.0943 34.9514 27.0128 35.2551 28.946 35.2311H41.738L37.2093 44.2144H26.8775C23.1103 44.2144 19.6834 43.6313 16.7185 42.4793C13.9824 41.4673 11.4848 39.8625 9.40272 37.7708C7.51201 35.8336 6.1159 33.4382 5.33621 30.8116C4.51455 27.9442 4.37465 24.9174 4.92999 21.9823C5.45752 18.8258 6.63422 15.8183 8.38008 13.1676C10.1778 10.464 12.4232 8.11188 15.0192 6.22265C15.4674 5.89507 15.9246 5.58158 16.3916 5.28763C16.854 4.984 17.3254 4.69975 17.8019 4.42993C19.0388 3.7214 20.3226 3.0997 21.644 2.57434C21.9243 2.4588 22.2089 2.3526 22.4938 2.25151C23.0214 2.0539 23.5584 1.88043 24.095 1.71664C24.9868 1.44664 25.8878 1.20571 26.7937 1.00318C27.0645 0.945585 27.3354 0.887641 27.6062 0.834629C29.8516 0.38165 32.1349 0.145298 34.4222 0.126101C34.5997 0.121346 34.7769 0.121346 34.9547 0.121346H49.0448L44.4883 9.24926H32.8584C30.8415 9.23958 28.8339 9.55289 26.9104 10.1649C25.0895 10.748 23.3761 11.6251 21.8264 12.7674C21.8215 12.7724 21.8169 12.7724 21.8122 12.7771C21.1397 13.2783 20.5142 13.8326 19.9306 14.4349C19.2258 15.1579 18.5906 15.9483 18.0307 16.8013C16.9848 18.3869 16.2799 20.1845 15.9622 22.0738L15.962 22.0739Z" fill="url(#paint0_linear_66_4388)"/>
<path d="M82.2298 31.5025L75.7779 44.1438H57.9626L62.2757 35.266H72.9624L65.967 13.2024L50.5018 44.1438L38.7084 44.1472L61.0875 0H72.6955L82.2298 31.5025Z" fill="white"/>
<path d="M125.748 16.3375L125.725 16.4452L125.243 18.4814C124.788 19.9593 124.13 21.3622 123.29 22.6481C122.037 24.5579 120.461 26.2196 118.638 27.5541C116.72 28.9373 114.596 29.9873 112.35 30.6622C109.921 31.4216 105.322 31.761 102.825 31.761H94.1924L89.6026 40.9277C88.6119 42.9036 86.6374 44.1449 84.4823 44.147H77.2721L83.7237 31.5057L88.3655 22.4329H106.269C107.379 22.4367 108.483 22.2655 109.544 21.9255C110.534 21.6083 111.468 21.1259 112.307 20.4975C113.096 19.9129 113.777 19.1882 114.319 18.3569C114.848 17.5478 115.205 16.6313 115.364 15.6688C115.534 14.806 115.498 13.9134 115.26 13.0681C115.036 12.3159 114.621 11.6394 114.058 11.1091C113.42 10.5152 112.665 10.0695 111.845 9.80193C110.852 9.46959 109.813 9.30721 108.769 9.32148L87.4541 9.21739L91.9821 0.067278H110.071C112.484 0.0308212 114.883 0.443997 117.154 1.28691C119.135 2.01745 120.939 3.18354 122.44 4.70433C123.836 6.15256 124.87 7.92978 125.451 9.88241C126.058 11.9825 126.163 14.2032 125.757 16.3543L125.748 16.3374L125.748 16.3375Z" fill="white"/>
<path d="M3.10306 51.8298C2.72157 51.8149 2.34776 51.9434 2.05141 52.1918C1.91032 52.315 1.79157 52.4633 1.70081 52.6296C1.60578 52.826 1.54419 53.0378 1.51843 53.2557H4.91545L4.7718 54.3124H1.38177C1.28435 54.6997 1.34389 55.1113 1.54658 55.4524C1.81699 55.7245 2.19131 55.8573 2.56683 55.8144H4.60358L4.45992 56.8783H2.36346C2.00893 56.8903 1.65474 56.8489 1.31182 56.7552C1.0571 56.674 0.824382 56.5328 0.631763 56.3427C0.357421 56.0847 0.168555 55.7441 0.0919511 55.3693C-0.0122919 54.8941 -0.0276469 54.4029 0.0463981 53.9218C0.193635 52.8506 0.524278 52.0556 1.0385 51.5369C1.63905 50.9919 2.42437 50.7146 3.22248 50.7661H5.26981L5.12616 51.83H3.1034L3.10306 51.8298Z" fill="white"/>
<path d="M6.33181 50.7659H7.88829L9.67629 55.1412L10.2161 50.7659H11.4711L10.6438 56.8566H9.22041L7.3309 52.2534L6.75953 56.8566H5.50452L6.33181 50.7659Z" fill="white"/>
<path d="M13.4975 56.8565L11.7902 50.7657H13.182L14.3143 55.3038L16.7333 50.7657H18.0408L14.7735 56.8565H13.4973H13.4975Z" fill="white"/>
<path d="M18.8122 56.8565H17.5291L18.3563 50.7657H19.6395L18.8122 56.8565Z" fill="white"/>
<path d="M20.8596 50.7659H23.885C24.5862 50.7659 25.0839 50.9142 25.3749 51.2037C25.681 51.5954 25.79 52.113 25.6694 52.6007C25.6254 53.0144 25.4672 53.4063 25.2137 53.7298C24.9711 54.0341 24.6321 54.2406 24.2566 54.3124L25.3644 56.8457H23.9831L23.026 54.4862H21.5782L21.2557 56.8748H20.0287L20.8596 50.7661V50.7659ZM23.4397 51.8515H21.9358L21.7254 53.3823H23.2363C23.5387 53.4061 23.8413 53.3409 24.1092 53.1941C24.2969 53.0593 24.4144 52.8434 24.4282 52.6078C24.484 52.3973 24.4234 52.172 24.2704 52.0215C24.0155 51.882 23.7267 51.8228 23.4395 51.8513" fill="white"/>
<path d="M26.1708 53.7624C26.2405 52.8797 26.6135 52.0519 27.2224 51.4281C27.8665 50.8825 28.6871 50.6095 29.5187 50.6644C30.5073 50.6644 31.2084 50.9249 31.6221 51.4461C32.0358 51.9672 32.1655 52.7597 32.0113 53.8237C31.864 54.9093 31.5204 55.6911 30.9596 56.2085C30.3173 56.7643 29.4931 57.0454 28.6564 56.9938C27.6537 56.9938 26.9527 56.7296 26.5529 56.2085C26.1534 55.6874 26.0201 54.8478 26.1708 53.762M29.3714 51.7028C28.9 51.6789 28.4419 51.8677 28.1164 52.2203C27.7706 52.6604 27.5606 53.1974 27.5135 53.762C27.3898 54.3112 27.4439 54.8871 27.6677 55.4014C27.9188 55.7797 28.3515 55.9843 28.793 55.9334C29.2687 55.9588 29.7309 55.7654 30.0551 55.4051C30.4048 54.9496 30.6138 54.3961 30.6546 53.8163C30.7742 53.2791 30.7162 52.7159 30.4898 52.2168C30.2356 51.8476 29.8075 51.6497 29.3714 51.6993" fill="white"/>
<path d="M33.2383 50.7659H34.7914L36.5828 55.1412L37.1192 50.7659H38.3778L37.5469 56.8566H36.1235L34.234 52.2534L33.6661 56.8566H32.4075L33.2383 50.7659Z" fill="white"/>
<path d="M39.5556 50.7659H41.3575L42.2164 55.438L44.3304 50.7659H46.1254L45.2946 56.8566H44.0957L44.8459 52.1122L42.6968 56.8566H41.3997L40.5093 52.0616L39.9729 56.8566H38.7249L39.5557 50.7659H39.5556Z" fill="white"/>
<path d="M49.5925 51.8298C49.2111 51.8152 48.8374 51.9438 48.5409 52.1918C48.3998 52.315 48.2811 52.4633 48.1903 52.6296C48.0953 52.826 48.0337 53.0378 48.0079 53.2557H51.4049L51.2613 54.3124H47.8537C47.7563 54.6997 47.8158 55.1113 48.0185 55.4524C48.2889 55.7245 48.6632 55.8573 49.0387 55.8144H51.0581L50.9144 56.8783H48.8355C48.481 56.8903 48.1268 56.8489 47.7839 56.7552C47.5292 56.674 47.2965 56.5328 47.1039 56.3427C46.8307 56.0836 46.6422 55.7436 46.564 55.3693C46.4668 54.9001 46.4572 54.4161 46.5361 53.9434C46.6809 52.8723 47.0105 52.0773 47.5248 51.5586C48.1253 51.0135 48.9106 50.7363 49.7087 50.7877H51.7526L51.609 51.8517L49.5932 51.83L49.5925 51.8298Z" fill="white"/>
<path d="M52.8214 50.7659H54.3744L56.1658 55.1412L56.7022 50.7659H57.9572L57.13 56.8566H55.7065L53.817 52.2534L53.2491 56.8566H51.9905L52.8214 50.7659Z" fill="white"/>
<path d="M60.2674 51.8443H58.3813L58.525 50.7803H63.5768L63.4331 51.8443H61.5295L60.8494 56.8565H59.5838L60.2674 51.8443Z" fill="white"/>
<path d="M65.8415 50.7659H67.1491L68.8072 56.8566H67.4435L67.0929 55.4091H64.5513L63.8501 56.8566H62.5496L65.8415 50.7659ZM66.2798 51.9855L65.1159 54.3233H66.8512L66.2798 51.9855Z" fill="white"/>
<path d="M71.5314 56.8565C71.1288 56.8762 70.726 56.826 70.3395 56.7082C70.0916 56.6175 69.8746 56.454 69.7154 56.2377C69.5467 56.0301 69.4331 55.7807 69.3858 55.5139C69.3423 55.1418 69.3519 54.765 69.4138 54.3957L69.908 50.7768H71.1385L70.6512 54.3559C70.6279 54.5248 70.6103 54.6731 70.5987 54.801C70.5922 54.9022 70.5922 55.0037 70.5987 55.105C70.6055 55.2335 70.6441 55.358 70.7109 55.4669C70.8089 55.6058 70.9425 55.7136 71.0965 55.7781C71.3239 55.8469 71.5608 55.8774 71.7977 55.8686H73.2385L73.1019 56.8818L71.5312 56.8565H71.5314Z" fill="white"/>
<path d="M82.5008 51.8587H79.4718C79.2102 51.8408 78.9493 51.9024 78.7216 52.0361C78.5409 52.1884 78.4291 52.411 78.4131 52.6513C78.3747 52.8267 78.4218 53.0105 78.5394 53.1435C78.7001 53.2657 78.8976 53.3247 79.0968 53.3099H80.7199C81.3966 53.3099 81.8593 53.4403 82.1222 53.7045C82.3851 53.9686 82.4446 54.4283 82.3605 55.0398C82.322 55.5713 82.0797 56.065 81.6875 56.4114C81.2122 56.7393 80.6452 56.8959 80.0749 56.8565H76.8075L76.9547 55.7709H80.0327C80.2972 55.7913 80.562 55.7349 80.7969 55.608C80.9603 55.4822 81.0627 55.2894 81.0774 55.0796C81.1248 54.8871 81.0777 54.6828 80.9511 54.5331C80.7576 54.4084 80.5295 54.3536 80.3026 54.3774H78.8548C78.1852 54.3774 77.7119 54.2363 77.4526 53.954C77.1533 53.5873 77.0438 53.0942 77.1581 52.6294C77.2018 52.0798 77.4538 51.5701 77.8593 51.2108C78.3319 50.8795 78.8985 50.7215 79.4685 50.762H82.6867L82.5009 51.8585L82.5008 51.8587Z" fill="white"/>
<path d="M83.0618 53.7624C83.1329 52.8802 83.5057 52.0528 84.1134 51.4281C84.7578 50.8832 85.5783 50.6102 86.4097 50.6645C87.4018 50.6645 88.096 50.9249 88.5131 51.4461C88.9303 51.9672 89.0459 52.756 88.8987 53.8237C88.7515 54.8913 88.4079 55.6911 87.8645 56.2085C87.2214 56.7631 86.3977 57.0439 85.5612 56.9938C84.5551 56.9938 83.8539 56.7297 83.4578 56.2085C83.0616 55.6874 82.932 54.8732 83.0826 53.762M86.2798 51.7029C85.8095 51.6789 85.3526 51.8679 85.0282 52.2203C84.6797 52.6615 84.4693 53.2016 84.4253 53.7693C84.3236 54.4931 84.3728 55.0576 84.5761 55.4086C84.8291 55.7842 85.261 55.987 85.7015 55.9369C86.1783 55.9628 86.6417 55.7695 86.9671 55.4086C87.3132 54.951 87.5217 54.3985 87.5666 53.8198C87.6874 53.2823 87.628 52.7184 87.3984 52.2203C87.1447 51.8506 86.7163 51.6523 86.28 51.7029" fill="white"/>
<path d="M91.6157 56.8565C91.212 56.8762 90.8078 56.826 90.4202 56.7082C90.1727 56.6166 89.956 56.4531 89.7961 56.2377C89.6288 56.0292 89.5153 55.7802 89.4665 55.5139C89.423 55.1418 89.4325 54.765 89.4945 54.3957L89.9887 50.7768H91.2192L90.7319 54.3559C90.7109 54.5248 90.6934 54.6731 90.6794 54.801C90.6729 54.9022 90.6729 55.0037 90.6794 55.105C90.6881 55.2332 90.7265 55.3573 90.7916 55.4669C90.8896 55.6058 91.0231 55.7136 91.1772 55.7781C91.4046 55.8469 91.6414 55.8774 91.8784 55.8686H93.2982L93.1616 56.8818L91.6155 56.8565H91.6157Z" fill="white"/>
<path d="M95.8542 50.7659L95.3599 54.4139C95.2587 54.8096 95.3077 55.2302 95.4966 55.59C95.7468 55.8513 96.1002 55.9783 96.4537 55.9338C96.8386 55.966 97.2209 55.8457 97.5229 55.5972C97.7952 55.2642 97.9551 54.8489 97.9786 54.4139L98.4729 50.7659H99.6963L99.1951 54.4463C99.1543 54.7899 99.0838 55.1289 98.9847 55.4595C98.9158 55.6911 98.7958 55.9028 98.6341 56.0784C98.3688 56.3663 98.0407 56.5847 97.677 56.7152C97.2404 56.8624 96.7828 56.9322 96.3237 56.9214C95.8893 56.9352 95.456 56.869 95.0441 56.726C94.7158 56.6014 94.4323 56.3767 94.2308 56.0817C94.1336 55.8996 94.0807 55.696 94.0766 55.4882C94.0559 55.1409 94.0749 54.7923 94.1327 54.4496L94.634 50.7655H95.854L95.8542 50.7659Z" fill="white"/>
<path d="M102.024 51.8443H100.138L100.282 50.7803H105.337L105.19 51.8443H103.29L102.606 56.8565H101.34L102.024 51.8443H102.024Z" fill="white"/>
<path d="M106.392 56.8565H105.109L105.94 50.7657H107.223L106.392 56.8565Z" fill="white"/>
<path d="M107.672 53.7624C107.743 52.8802 108.116 52.0528 108.724 51.4281C109.369 50.8825 110.191 50.6097 111.023 50.6644C112.012 50.6644 112.713 50.9249 113.127 51.4461C113.541 51.9672 113.67 52.7597 113.516 53.8237C113.369 54.8948 113.018 55.6898 112.464 56.2085C111.811 56.7693 110.973 57.047 110.126 56.9829C109.12 56.9829 108.422 56.7187 108.023 56.1976C107.623 55.6765 107.504 54.8478 107.672 53.762M110.869 51.7028C110.399 51.68 109.942 51.8688 109.618 52.2203C109.269 52.6615 109.059 53.2016 109.015 53.7693C108.913 54.4931 108.962 55.0576 109.165 55.4086C109.42 55.7848 109.853 55.9875 110.294 55.9369C110.77 55.9623 111.232 55.7689 111.556 55.4086C111.903 54.951 112.111 54.3985 112.156 53.8198C112.276 53.2826 112.218 52.7194 111.991 52.2203C111.735 51.8511 111.306 51.6534 110.869 51.7028" fill="white"/>
<path d="M114.722 50.7659H116.275L118.066 55.1412L118.603 50.7659H119.858L119.031 56.8566H117.607L115.718 52.2534L115.15 56.8566H113.891L114.722 50.7659Z" fill="white"/>
<path d="M125.825 51.8587H122.796C122.534 51.8408 122.273 51.9024 122.045 52.0361C121.865 52.1884 121.753 52.411 121.737 52.6513C121.699 52.8267 121.746 53.0105 121.863 53.1435C122.024 53.2657 122.221 53.3247 122.421 53.3099H124.044C124.72 53.3099 125.183 53.4403 125.446 53.7045C125.709 53.9686 125.768 54.4283 125.684 55.0398C125.646 55.5713 125.404 56.065 125.011 56.4114C124.537 56.7388 123.971 56.8954 123.402 56.8565H120.117L120.264 55.7709H123.342C123.607 55.7913 123.872 55.7349 124.107 55.608C124.271 55.4829 124.375 55.2901 124.39 55.0796C124.435 54.8866 124.387 54.683 124.261 54.5331C124.067 54.4081 123.839 54.3533 123.612 54.3774H122.165C121.495 54.3774 121.022 54.2363 120.762 53.954C120.463 53.5875 120.354 53.0935 120.471 52.6294C120.513 52.0792 120.766 51.5687 121.173 51.2108C121.646 50.879 122.214 50.721 122.785 50.762H126L125.825 51.8585L125.825 51.8587Z" fill="white"/>
</g>
<defs>
<linearGradient id="paint0_linear_66_4388" x1="4.59645" y1="22.168" x2="49.0446" y2="22.168" gradientUnits="userSpaceOnUse">
<stop stop-color="white"/>
<stop offset="1" stop-color="white"/>
</linearGradient>
<clipPath id="clip0_66_4388">
<rect width="126" height="57" fill="white"/>
</clipPath>
</defs>
</svg>
